<?xml version="1.0" encoding="iso-8859-1"?>
<!-- Generator: Adobe Illustrator 19.0.0, SVG Export Plug-In . SVG Version: 6.00 Build 0)  -->
<svg version="1.1" id="Capa_1" xmlns="http://www.w3.org/2000/svg" xmlns:xlink="http://www.w3.org/1999/xlink" x="0px" y="0px"
	 viewBox="0 0 448 448" style="enable-background:new 0 0 448 448;" xml:space="preserve">
<rect id="SVGCleanerId_0" y="24.4" style="fill:#ECEBEB;" width="448" height="256"/>
<g>
	<rect id="SVGCleanerId_0_1_" y="24.4" style="fill:#ECEBEB;" width="448" height="256"/>
</g>
<ellipse style="fill:#CAC9C9;" cx="224" cy="152.4" rx="64" ry="78.4"/>
<g>
	<path style="fill:#858485;" d="M16,40.4v224h416v-224H16z M416,200.4c-26.4,0-48,21.6-48,48H80c0-26.4-21.6-48-48-48v-96
		c26.4,0,48-21.6,48-48h288c0,26.4,21.6,48,48,48V200.4z"/>
	<circle style="fill:#858485;" cx="223.2" cy="132.4" r="28"/>
	<path style="fill:#858485;" d="M280,188.4c-14.4-12-34.4-20-56.8-20c-21.6,0-41.6,7.2-56,19.2c10.4,25.6,32,43.2,56.8,43.2
		S269.6,214,280,188.4z"/>
</g>
<path style="fill:#469C60;" d="M352,120.4c-17.6,0-32,14.4-32,32s14.4,32,32,32s32-14.4,32-32S369.6,120.4,352,120.4z M368,168.4
	h-32v-32h32V168.4z"/>
<path d="M96,120.4c-17.6,0-32,14.4-32,32s14.4,32,32,32s32-14.4,32-32S113.6,120.4,96,120.4z M112,168.4H80v-32h32V168.4z"/>
<circle style="fill:#469C60;" cx="224" cy="311.6" r="112"/>
<path style="fill:#E6262B;" d="M224,199.6v112h112C336,250,285.6,199.6,224,199.6z"/>
<path style="fill:#F9CC59;" d="M224,311.6l79.2,79.2c21.6-21.6,32.8-50.4,32.8-79.2H224z"/>
<g>
</g>
<g>
</g>
<g>
</g>
<g>
</g>
<g>
</g>
<g>
</g>
<g>
</g>
<g>
</g>
<g>
</g>
<g>
</g>
<g>
</g>
<g>
</g>
<g>
</g>
<g>
</g>
<g>
</g>
</svg>
