<?xml version="1.0" encoding="iso-8859-1"?>
<!-- Generator: Adobe Illustrator 19.0.0, SVG Export Plug-In . SVG Version: 6.00 Build 0)  -->
<svg version="1.1" id="Capa_1" xmlns="http://www.w3.org/2000/svg" xmlns:xlink="http://www.w3.org/1999/xlink" x="0px" y="0px"
	 viewBox="0 0 512 512" style="enable-background:new 0 0 512 512;" xml:space="preserve">
<g>
	<path style="fill:#E7ECED;" d="M493.621,256.018c0.433-5.844,0.724-11.723,0.724-17.673C494.345,106.708,387.637,0,256,0
		S17.655,106.708,17.655,238.345c0,5.95,0.291,11.829,0.724,17.673c0-0.009,0-0.009,0-0.018c-0.433,5.835-0.724,11.705-0.724,17.655
		C17.655,405.292,124.363,512,256,512s238.345-106.708,238.345-238.345c0-5.95-0.291-11.82-0.724-17.655
		C493.621,256.009,493.621,256.009,493.621,256.018z"/>
	<circle style="fill:#E7ECED;" cx="256" cy="238.345" r="238.345"/>
</g>
<g>
	<circle style="fill:#AFB6BB;" cx="256" cy="238.345" r="194.207"/>
	<path style="fill:#AFB6BB;" d="M256,476.69c-125.687,0-228.582-97.306-237.621-220.69c-0.433,5.835-0.724,11.705-0.724,17.655
		C17.655,405.292,124.363,512,256,512s238.345-106.708,238.345-238.345c0-5.95-0.291-11.82-0.724-17.655
		C484.582,379.383,381.687,476.69,256,476.69z"/>
</g>
<path style="fill:#8F9599;" d="M326.621,291.31c0-38.938-31.32-70.621-69.817-70.621h-10.434c-19.023,0-34.507-15.837-34.507-35.31
	s15.484-35.31,34.507-35.31h53.769c9.746,0,17.655-7.91,17.655-17.655c0-9.746-7.91-17.655-17.655-17.655h-26.483v-8.828
	c0-9.746-7.91-17.655-17.655-17.655c-9.746,0-17.655,7.91-17.655,17.655v9.331c-34.728,4.043-61.793,33.924-61.793,70.118
	c0,38.938,31.32,70.621,69.817,70.621h10.434c19.023,0,34.507,15.837,34.507,35.31c0,19.474-15.484,35.31-34.507,35.31h-53.769
	c-9.746,0-17.655,7.91-17.655,17.655c0,9.746,7.91,17.655,17.655,17.655h35.31v8.828c0,9.746,7.91,17.655,17.655,17.655
	c9.746,0,17.655-7.91,17.655-17.655v-10.999C304.022,352.106,326.621,324.361,326.621,291.31z"/>
<g>
</g>
<g>
</g>
<g>
</g>
<g>
</g>
<g>
</g>
<g>
</g>
<g>
</g>
<g>
</g>
<g>
</g>
<g>
</g>
<g>
</g>
<g>
</g>
<g>
</g>
<g>
</g>
<g>
</g>
</svg>
