<svg id="Capa_1" enable-background="new 0 0 512 512" height="512" viewBox="0 0 512 512" width="512" xmlns="http://www.w3.org/2000/svg"><path d="m267.096 0h128.215c11.487 0 18.959 12.089 13.821 22.363l-30.026 61.081h-95.806l-30.026-61.081c-5.137-10.274 2.334-22.363 13.822-22.363z" fill="#cca385"/><path d="m409.136 22.365-30.03 61.079-30.905-1.03 30.03-60.049c5.13-10.281-2.339-22.365-13.825-22.365h30.905c11.487 0 18.956 12.084 13.825 22.365z" fill="#9b7861"/><path d="m374.471 82.414h-90.656c-12.801 0-23.179 10.378-23.179 23.179 0 12.801 10.378 23.179 23.179 23.179l43.185 10 47.471-10c12.801 0 23.179-10.378 23.179-23.179 0-12.801-10.378-23.179-23.179-23.179z" fill="#ddd"/><path d="m397.65 105.594c0 12.805-10.374 23.179-23.179 23.179h-30.905c12.805 0 23.179-10.374 23.179-23.179 0-6.408-2.596-12.197-6.789-16.39s-9.982-6.789-16.39-6.789h30.905c6.408 0 12.197 2.596 16.39 6.789 4.193 4.192 6.789 9.982 6.789 16.39z" fill="#bfbfbf"/><path d="m388.378 512h-108.169c-68.274 0-123.622-55.347-123.622-123.622v-146.285c0-62.585 50.735-113.32 113.32-113.32h118.471c62.585 0 113.32 50.735 113.32 113.32v156.587c0 62.585-50.735 113.32-113.32 113.32z" fill="#cca385"/><path d="m501.698 242.093v156.587c0 62.583-50.736 113.32-113.32 113.32h-30.905c62.583 0 113.32-50.736 113.32-113.32v-156.587c0-62.584-50.736-113.32-113.32-113.32h30.905c62.584 0 113.32 50.736 113.32 113.32z" fill="#9b7861"/><path d="m375.501 292.829c4.268 0 7.726-3.459 7.726-7.726v-15.968c0-12.781-10.283-23.179-22.922-23.179h-24.467v-16.483c0-4.267-3.459-7.726-7.726-7.726s-7.726 3.459-7.726 7.726v16.483h-17.256c-15.479 0-28.072 12.709-28.072 28.33v38.117c0 15.621 12.594 28.33 28.072 28.33h52.024c7.076 0 12.62 5.656 12.62 12.877v38.117c0 7.221-5.543 12.877-12.62 12.877h-7.984c-4.268 0-7.726 3.459-7.726 7.726s3.459 7.726 7.726 7.726h7.984c15.479 0 28.072-12.709 28.072-28.33v-38.116c0-15.621-12.594-28.33-28.072-28.33h-52.024c-7.076 0-12.62-5.656-12.62-12.877v-38.117c0-7.221 5.543-12.877 12.62-12.877h57.175c4.188 0 7.469 3.394 7.469 7.726v15.968c.001 4.267 3.459 7.726 7.727 7.726z" fill="#9b7861"/><path d="m331.718 512h-305.963c-8.534 0-15.453-6.918-15.453-15.453v-92.716c0-8.534 6.918-15.453 15.453-15.453h305.964c8.534 0 15.453 6.918 15.453 15.453v92.716c-.001 8.535-6.919 15.453-15.454 15.453z" fill="#91ce96"/><path d="m347.171 403.831v92.716c0 8.53-6.923 15.453-15.453 15.453h-30.905c8.53 0 15.453-6.923 15.453-15.453v-92.716c0-8.53-6.923-15.453-15.453-15.453h30.905c8.53 0 15.453 6.923 15.453 15.453z" fill="#6daa71"/><path d="m119.501 388.378h118.471v123.622h-118.471z" fill="#93aa66"/><path d="m178.736 474.913c-13.655 0-24.724-11.069-24.724-24.724 0-13.655 11.069-24.724 24.724-24.724 13.655 0 24.724 11.069 24.724 24.724.001 13.655-11.069 24.724-24.724 24.724z" fill="#7c8c53"/><path d="m10.302 411.557h109.199v15.453h-109.199z" fill="#6daa71"/><path d="m237.972 411.557h109.199v15.453h-109.199z" fill="#6daa71"/><path d="m316.266 411.557h30.905v15.453h-30.905z" fill="#568456"/><path d="m10.302 442.463h109.199v15.453h-109.199z" fill="#6daa71"/><path d="m237.972 442.463h109.199v15.453h-109.199z" fill="#6daa71"/><path d="m316.266 442.463h30.905v15.453h-30.905z" fill="#568456"/><path d="m10.302 473.368h109.199v15.453h-109.199z" fill="#6daa71"/><path d="m237.972 473.368h109.199v15.453h-109.199z" fill="#6daa71"/><path d="m316.266 473.368h30.905v15.453h-30.905z" fill="#568456"/><path d="m178.736 233.851c42.672 0 77.264 34.592 77.264 77.264 0 42.671-34.592 77.263-77.264 77.263-42.671 0-77.264-34.592-77.264-77.263.001-42.672 34.593-77.264 77.264-77.264z" fill="#ffd576"/><path d="m178.736 357.473c-25.603 0-46.358-20.755-46.358-46.358 0-25.603 20.755-46.358 46.358-46.358 25.603 0 46.358 20.755 46.358 46.358.001 25.603-20.755 46.358-46.358 46.358z" fill="#efba50"/><path d="m225.095 311.115c0 12.795-5.192 24.395-13.578 32.78-8.386 8.386-19.986 13.578-32.78 13.578-5.419 0-10.621-.927-15.453-2.648 6.593-2.318 12.496-6.099 17.328-10.93 8.386-8.386 13.578-19.986 13.578-32.78 0-12.795-5.192-24.395-13.578-32.78-4.832-4.832-10.735-8.612-17.328-10.93 4.831-1.72 10.034-2.648 15.453-2.648 12.795 0 24.395 5.192 32.78 13.578 8.385 8.385 13.578 19.985 13.578 32.78z" fill="#ea9c3f"/></svg>